<svg xmlns="http://www.w3.org/2000/svg" xmlns:xlink="http://www.w3.org/1999/xlink" viewBox="0 0 193.89 193.89"><defs><style>.cls-1{fill:url(#linear-gradient);}</style><linearGradient id="linear-gradient" x1="247.8" y1="170.95" x2="83.95" y2="90.57" gradientUnits="userSpaceOnUse"><stop offset="0" stop-color="#77499d"/><stop offset="1" stop-color="#39c5f3"/></linearGradient></defs><g id="Layer_2" data-name="Layer 2"><g id="_1" data-name="1"><g id="Logo"><path class="cls-1" d="M159.32,97l28.33-26A19.32,19.32,0,1,0,161.5,42.45l-6.75,6.2-5-4.55-4.54-5,6.2-6.75A19.32,19.32,0,1,0,123,6.25L97,34.58,70.9,6.25A19.32,19.32,0,1,0,42.45,32.4l6.2,6.75-4.55,5-5,4.55-6.75-6.2A19.32,19.32,0,1,0,6.25,70.9L34.58,97,6.25,123a19.32,19.32,0,0,0,12.26,33.53c.28,0,.56,0,.83,0a19.15,19.15,0,0,0,13.06-5.1l6.75-6.2,5,4.55,4.54,4.95-6.2,6.75A19.32,19.32,0,0,0,70.9,187.65L97,159.31,123,187.65a19.32,19.32,0,1,0,28.45-26.15l-6.2-6.75,4.54-4.95,5-4.55,6.75,6.2a19.15,19.15,0,0,0,13.06,5.1c.27,0,.55,0,.83,0A19.32,19.32,0,0,0,187.65,123Zm-22.64,24.84a13.14,13.14,0,0,1,10.22,22l-1.47,1.6-1.62,1.49a13.14,13.14,0,0,1-19.71-17.12l2.72-3,3-2.73A12.94,12.94,0,0,1,136.68,121.79Zm-10.74-2.56a19.56,19.56,0,0,0-2.94,2.61l-.55.6-.61.56a19.56,19.56,0,0,0-2.61,2.94L97,150.18,74.67,125.94A20.06,20.06,0,0,0,72.06,123l-.61-.56-.55-.6A19.56,19.56,0,0,0,68,119.23L43.72,97,68,74.59a19.42,19.42,0,0,0,2.86-2.53l.55-.61.61-.55A19.92,19.92,0,0,0,74.66,68L97,43.72,119.23,68a19.56,19.56,0,0,0,2.61,2.94l.61.55.55.61a18.92,18.92,0,0,0,2.86,2.53L150.18,97ZM68.65,146.12a13.15,13.15,0,0,1-18.56.78l-1.62-1.49L47,143.81A13.14,13.14,0,0,1,64.12,124.1l3,2.73,2.71,2.94A13.16,13.16,0,0,1,68.65,146.12ZM47.78,68.65A13.14,13.14,0,0,1,47,50.09l1.48-1.61L50.09,47a13.13,13.13,0,0,1,19.7,17.13l-2.71,3-3,2.71A13.16,13.16,0,0,1,47.78,68.65Zm74-11.43a13.14,13.14,0,0,1,22-10.22l1.61,1.48,1.48,1.61a13.13,13.13,0,0,1-17.13,19.7l-3-2.71-2.72-3A13.14,13.14,0,0,1,121.79,57.22ZM165.68,47a13.14,13.14,0,1,1,17.79,19.34L154.75,92.75,138.94,78.22a19.27,19.27,0,0,0,17.29-22.67l.21-.12.25-.19.15-.11ZM127.55,10.43A13.14,13.14,0,1,1,146.9,28.22l-8.13,8.84-.11.15-.19.24c0,.08-.09.15-.13.22A19.26,19.26,0,0,0,115.69,55L101.15,39.15Zm-84,8.34a13.14,13.14,0,0,1,22.81-8.34l26.4,28.72L78.2,55A19.24,19.24,0,0,0,55.56,37.67c0-.07-.09-.14-.13-.22l-.19-.24-.11-.15L47,28.22A13.09,13.09,0,0,1,43.54,18.77ZM6.2,57.22A13.14,13.14,0,0,1,28.22,47l8.84,8.13.15.11.25.19.2.12a19.94,19.94,0,0,0-.29,4.24A19.3,19.3,0,0,0,55,78.22L39.15,92.75,10.43,66.34A13,13,0,0,1,6.2,57.22Zm22,89.68a13.14,13.14,0,0,1-17.79-19.34l28.72-26.41L55,115.69a19.26,19.26,0,0,0-17.6,18.42,19.81,19.81,0,0,0,.29,4.23l-.21.14-.23.17-.16.12Zm38.13,36.57A13.14,13.14,0,1,1,47,165.68l8.13-8.84s.07-.1.11-.15a2.35,2.35,0,0,0,.19-.25l.12-.2a19.39,19.39,0,0,0,3.41.31c.28,0,.55,0,.83,0A19.26,19.26,0,0,0,78.2,138.92l14.55,15.83Zm84-8.34a13.15,13.15,0,0,1-22.81,8.34l-26.4-28.72,14.54-15.82a19.26,19.26,0,0,0,18.42,17.6c.28,0,.55,0,.83,0a19.39,19.39,0,0,0,3.41-.31l.12.2a2.35,2.35,0,0,0,.19.25c0,.05.07.11.11.15l8.13,8.84A13.09,13.09,0,0,1,150.36,175.13Zm33.89-29a13.17,13.17,0,0,1-18.57.78l-8.84-8.13-.16-.12-.24-.18-.21-.13a19.26,19.26,0,0,0-17.3-22.65l15.82-14.54,28.72,26.41A13.15,13.15,0,0,1,184.25,146.12ZM119.65,84.7a13.55,13.55,0,0,0-19.11-.81L97,87.2l-3.6-3.31A13.53,13.53,0,0,0,75,103.82L94.85,122l.2.15a1.33,1.33,0,0,0,.19.14l.34.19.2.1.4.13.17,0a3,3,0,0,0,.59.06h0a3,3,0,0,0,.59-.06l.17,0,.4-.13.2-.1.34-.19a1.33,1.33,0,0,0,.19-.14L99,122l19.81-18.22A13.54,13.54,0,0,0,119.65,84.7Zm-5,14.56L97,115.55,79.22,99.26a7.35,7.35,0,0,1,10-10.81l5.68,5.23.16.11.24.18.27.16c.09,0,.17.09.26.12l.3.1.27.07a1.54,1.54,0,0,0,.3,0l.3,0,.29,0a1.54,1.54,0,0,0,.3,0l.28-.07.29-.1a2.06,2.06,0,0,0,.26-.12l.27-.16.24-.18.16-.11,5.68-5.23a7.35,7.35,0,1,1,10,10.81Z"/></g></g></g></svg>